<svg width="72" height="72" viewBox="0 0 72 72" fill="none" xmlns="http://www.w3.org/2000/svg">
<path d="M56.6992 27.4275L65.5867 26.0325" stroke="#FF5B46" stroke-width="2.8125"/>
<path d="M53.9219 19.2487L59.4794 15.975" stroke="#FF5B46" stroke-width="2.8125"/>
<path d="M48.25 13.1962L51.985 5.07373" stroke="#FF5B46" stroke-width="2.8125"/>
<path d="M37.6309 12.0262L37.5859 5.57996" stroke="#FF5B46" stroke-width="2.8125"/>
<path d="M27.328 13.6012L24.3242 5.07373" stroke="#FF5B46" stroke-width="2.8125"/>
<path d="M20.2369 19.1588L14.5781 16.0763" stroke="#FF5B46" stroke-width="2.8125"/>
<path d="M17.7539 26.9663L9.03516 25.4926" stroke="#FF5B46" stroke-width="2.8125"/>
<path d="M29.4983 51.1537C29.4983 45.3487 25.9095 40.4775 23.9745 36.8775C22.8995 34.8785 22.3353 32.6447 22.332 30.375C22.332 22.7362 29.3183 16.5375 36.957 16.5375" stroke="#FF5B46" stroke-width="2.8125"/>
<path d="M44.4158 51.1537C44.4158 45.3487 48.0045 40.4775 49.9395 36.8775C51.0146 34.8785 51.5788 32.6447 51.582 30.375C51.582 22.7362 44.5958 16.5375 36.957 16.5375" stroke="#FF5B46" stroke-width="2.8125"/>
<path d="M45.4933 50.8387H28.967C27.6498 50.8387 26.582 51.9065 26.582 53.2237V53.235C26.582 54.5522 27.6498 55.62 28.967 55.62H45.4933C46.8105 55.62 47.8783 54.5522 47.8783 53.235V53.2237C47.8783 51.9065 46.8105 50.8387 45.4933 50.8387Z" stroke="#FF5B46" stroke-width="2.8125"/>
<path d="M44.1919 55.6088H30.2756C28.9584 55.6088 27.8906 56.6766 27.8906 57.9938V58.005C27.8906 59.3222 28.9584 60.39 30.2756 60.39H44.1919C45.5091 60.39 46.5769 59.3222 46.5769 58.005V57.9938C46.5769 56.6766 45.5091 55.6088 44.1919 55.6088Z" stroke="#FF5B46" stroke-width="2.8125"/>
<path d="M40.8617 60.39V61.335C40.9011 61.8347 40.8367 62.3372 40.6726 62.8108C40.5084 63.2844 40.248 63.719 39.9078 64.0871C39.5675 64.4552 39.1548 64.749 38.6956 64.9499C38.2363 65.1508 37.7405 65.2545 37.2392 65.2545C36.738 65.2545 36.2421 65.1508 35.7829 64.9499C35.3236 64.749 34.9109 64.4552 34.5707 64.0871C34.2304 63.719 33.97 63.2844 33.8059 62.8108C33.6417 62.3372 33.5773 61.8347 33.6167 61.335V60.39" stroke="#FF5B46" stroke-width="2.8125"/>
<path d="M27.6406 29.5313C27.6968 28.4237 27.9707 27.3381 28.4468 26.3366C28.9228 25.335 29.5917 24.4371 30.415 23.6942C31.2383 22.9513 32.2001 22.378 33.2451 22.0071C34.2902 21.6362 35.3982 21.4749 36.5056 21.5325" stroke="#FF5B46" stroke-width="2.8125"/>
</svg>
