<svg width="60" height="60" viewBox="0 0 60 60" fill="none" xmlns="http://www.w3.org/2000/svg">
<path d="M51.3852 51.3383L51.3855 51.338C52.5721 50.1515 52.5721 48.2207 51.3855 47.034C50.8108 46.4594 50.0462 46.1425 49.2332 46.1425C48.4206 46.1425 47.6561 46.4594 47.0811 47.0346C45.8948 48.2207 45.8948 50.1516 47.0814 51.338C48.2682 52.5244 50.1988 52.5244 51.3852 51.3383ZM48.0278 50.3915C47.706 50.0697 47.5287 49.6416 47.5287 49.186C47.5287 48.7307 47.7059 48.3023 48.0278 47.9804C48.35 47.6586 48.7782 47.4811 49.2337 47.4811C49.689 47.4811 50.1169 47.6586 50.439 47.9804C51.1036 48.6453 51.1036 49.7267 50.4388 50.3915C49.774 51.0564 48.6927 51.0561 48.0278 50.3915Z" fill="#FF5B46"/>
<path d="M56.6967 13.4245C56.6974 13.4237 56.6983 13.4231 56.699 13.4224C56.7004 13.4209 56.7017 13.4193 56.7032 13.4179L56.8867 13.2344L56.8821 13.2298C59.6099 10.3026 59.55 5.70264 56.6985 2.85124C55.2867 1.43934 53.4097 0.661743 51.413 0.661743C49.5054 0.661743 47.7079 1.37304 46.3199 2.66774L46.3155 2.66328L46.1318 2.84684C46.1303 2.84838 46.1288 2.84968 46.1273 2.85121C46.1266 2.85191 46.126 2.85271 46.1253 2.85351L2.21127 46.7673L2.22837 46.7844C1.98291 46.9427 1.80507 47.2027 1.76237 47.5147L0.318173 58.0634C0.274206 58.385 0.383173 58.7083 0.612539 58.9378C0.808373 59.1335 1.07277 59.2414 1.34601 59.2414C1.39274 59.2414 1.43977 59.2383 1.48681 59.2319L12.0352 57.7873C12.3473 57.7448 12.6073 57.5667 12.7656 57.3213L12.7826 57.3384L56.6967 13.4245ZM51.413 2.73648C52.8554 2.73648 54.2115 3.29821 55.2314 4.31821C57.0861 6.17281 57.3072 9.05221 55.8946 11.151L48.398 3.65468C49.2816 3.05748 50.3228 2.73648 51.413 2.73648ZM46.3155 5.59731L53.9526 13.2344L12.7826 54.4043L9.90947 51.5313L42.9569 18.4843L40.9785 16.5063L7.93154 49.5535L5.14537 46.7673L46.3155 5.59731ZM2.55904 56.991L3.74837 48.3042L11.2455 55.8014L2.55904 56.991Z" fill="#FF5B46"/>
<path d="M16.897 26.816L18.7899 24.923L3.64173 9.77469L9.8228 3.59346L12.7536 6.52452L10.6272 8.65062L12.3059 10.3293L14.4323 8.20329L16.1411 9.91189L14.0147 12.0382L15.6934 13.7166L17.82 11.5907L19.5286 13.2996L16.3827 16.4447L18.0619 18.1234L21.2073 14.978L23.2907 17.0613L21.1643 19.188L22.8431 20.8665L24.9695 18.7401L24.9709 18.7416L26.8639 16.8487L10.7691 0.754088C10.2464 0.231222 9.39907 0.231222 8.87633 0.754088L0.802331 8.82819C0.279431 9.35096 0.279431 10.1984 0.802331 10.7212L16.897 26.816Z" fill="#FF5B46"/>
<path d="M59.2986 49.2763C59.2744 49.252 59.2494 49.2288 59.2239 49.2068L42.3812 32.3644L37.3426 37.403L39.0179 39.0783L42.1636 35.9327L56.4566 50.2254L50.2752 56.4065L34.307 40.4384L32.4141 42.3317L49.3286 59.2459C49.8514 59.7689 50.6987 59.7689 51.2216 59.2459L59.296 51.1722C59.2967 51.171 59.2976 51.1704 59.2987 51.1693C59.8215 50.6468 59.8215 49.799 59.2986 49.2763Z" fill="#FF5B46"/>
</svg>
