<svg width="60" height="60" viewBox="0 0 60 60" fill="none" xmlns="http://www.w3.org/2000/svg">
<g clip-path="url(#clip0_1063_179)">
<path d="M45.613 36.2201V56.9544C45.613 57.5622 45.1193 58.0559 44.5116 58.0559H34.1444C33.5366 58.0559 33.043 57.5621 33.043 56.9544V36.2201C33.043 35.6123 33.5367 35.1187 34.1444 35.1187H38.3561V39.0569L36.9047 37.6068C36.525 37.227 35.9107 37.227 35.5311 37.6068C35.1512 37.9865 35.1512 38.6008 35.5311 38.9804L38.6412 42.0905C38.6425 42.0918 38.6438 42.0931 38.6451 42.0944C38.6657 42.1151 38.6892 42.1358 38.7124 42.1553C38.7227 42.1643 38.7345 42.1722 38.7461 42.1799C38.7603 42.1915 38.7733 42.202 38.7889 42.2123C38.802 42.2213 38.8148 42.2292 38.8292 42.2369C38.8433 42.2447 38.8565 42.2538 38.8705 42.2603C38.8837 42.268 38.8978 42.2745 38.9121 42.281C38.9277 42.2888 38.9418 42.2952 38.9562 42.3018C38.9704 42.307 38.9847 42.3121 38.999 42.3174C39.0146 42.3226 39.0301 42.329 39.0457 42.3343C39.0598 42.3382 39.0742 42.3407 39.0898 42.3446C39.1054 42.3485 39.1222 42.3536 39.1391 42.3562C39.1547 42.3601 39.1715 42.3627 39.1883 42.364C39.2039 42.3665 39.2181 42.3691 39.2325 42.3704C39.2648 42.3743 39.2959 42.3756 39.3283 42.3756C39.3607 42.3756 39.3918 42.3743 39.4241 42.3704C39.4382 42.3691 39.4527 42.3665 39.4683 42.364C39.4852 42.3627 39.5019 42.3601 39.5175 42.3562C39.5344 42.3536 39.5512 42.3485 39.5668 42.3446C39.5824 42.3407 39.5966 42.3382 39.6109 42.3343C39.6265 42.3291 39.642 42.3227 39.6576 42.3174C39.6718 42.3122 39.6861 42.3071 39.7004 42.3018C39.7147 42.2953 39.7289 42.2889 39.7445 42.281C39.7587 42.2746 39.773 42.2681 39.7859 42.2603C39.8 42.2538 39.8132 42.2447 39.8272 42.2369C39.8414 42.2292 39.8545 42.2213 39.8676 42.2123C39.8832 42.202 39.8961 42.1915 39.9104 42.1799C39.922 42.1722 39.9338 42.1643 39.9441 42.1553C39.9674 42.1358 39.9908 42.1151 40.0114 42.0944C40.0128 42.0931 40.0141 42.0918 40.0153 42.0905L43.1254 38.9804C43.5053 38.6006 43.5053 37.9864 43.1254 37.6068C42.7457 37.227 42.1314 37.227 41.7518 37.6068L40.3004 39.0569V35.1187H44.5121C45.1194 35.1187 45.613 35.6124 45.613 36.2201ZM42.3733 46.5874C42.3733 44.9079 41.0074 43.542 39.3279 43.542C37.6485 43.542 36.2826 44.9079 36.2826 46.5874C36.2826 48.2669 37.6485 49.6327 39.3279 49.6327C41.0074 49.6327 42.3733 48.2669 42.3733 46.5874Z" fill="white"/>
<path d="M26.9529 36.2201V56.9544C26.9529 57.5622 26.4591 58.0559 25.8514 58.0559H15.4843C14.8765 58.0559 14.3828 57.5621 14.3828 56.9544V36.2201C14.3828 35.6123 14.8766 35.1187 15.4843 35.1187H19.696V39.0569L18.2446 37.6068C17.8648 37.227 17.2506 37.227 16.8709 37.6068C16.4911 37.9865 16.4911 38.6008 16.8709 38.9804L19.981 42.0905C19.9823 42.0918 19.9836 42.0931 19.9849 42.0944C20.0056 42.1151 20.029 42.1358 20.0522 42.1553C20.0626 42.1643 20.0743 42.1722 20.0859 42.1799C20.1002 42.1915 20.1131 42.202 20.1287 42.2123C20.1419 42.2213 20.1547 42.2292 20.1691 42.2369C20.1832 42.2447 20.1963 42.2538 20.2104 42.2603C20.2235 42.268 20.2376 42.2745 20.2519 42.281C20.2675 42.2888 20.2817 42.2952 20.296 42.3018C20.3103 42.307 20.3245 42.3121 20.3388 42.3174C20.3544 42.3226 20.3699 42.329 20.3855 42.3343C20.3996 42.3382 20.414 42.3407 20.4296 42.3446C20.4452 42.3485 20.462 42.3536 20.4789 42.3562C20.4945 42.3601 20.5113 42.3627 20.5282 42.364C20.5438 42.3665 20.558 42.3691 20.5723 42.3704C20.6047 42.3743 20.6358 42.3756 20.6681 42.3756C20.7005 42.3756 20.7316 42.3743 20.764 42.3704C20.7781 42.3691 20.7925 42.3665 20.8081 42.364C20.825 42.3627 20.8418 42.3601 20.8574 42.3562C20.8743 42.3536 20.891 42.3485 20.9066 42.3446C20.9222 42.3407 20.9364 42.3382 20.9508 42.3343C20.9664 42.3291 20.9818 42.3227 20.9974 42.3174C21.0118 42.3122 21.026 42.3071 21.0403 42.3018C21.0546 42.2953 21.0688 42.2889 21.0844 42.281C21.0987 42.2746 21.1129 42.2681 21.1258 42.2603C21.1399 42.2538 21.153 42.2447 21.1671 42.2369C21.1814 42.2292 21.1943 42.2213 21.2074 42.2123C21.223 42.202 21.2359 42.1915 21.2503 42.1799C21.2619 42.1722 21.2736 42.1643 21.2839 42.1553C21.3073 42.1358 21.3306 42.1151 21.3513 42.0944C21.3527 42.0931 21.3538 42.0918 21.3551 42.0905L24.4652 38.9804C24.8451 38.6006 24.8451 37.9864 24.4652 37.6068C24.0855 37.227 23.4712 37.227 23.0916 37.6068L21.6402 39.0569V35.1187H25.8519C26.4592 35.1187 26.9529 35.6124 26.9529 36.2201ZM23.7131 46.5874C23.7131 44.9079 22.3473 43.542 20.6678 43.542C18.9883 43.542 17.6224 44.9079 17.6224 46.5874C17.6224 48.2669 18.9883 49.6327 20.6678 49.6327C22.3474 49.6327 23.7131 48.2669 23.7131 46.5874Z" fill="white"/>
<path d="M26.953 3.04531V12.4405H23.5538C23.1469 11.2366 22.0079 10.3671 20.6679 10.3671C18.9884 10.3671 17.6226 11.733 17.6226 13.4125C17.6226 14.7524 18.4921 15.8915 19.696 16.2984V24.8811H15.4843C14.8765 24.8811 14.3828 24.3873 14.3828 23.7796V3.04531C14.3828 2.4375 14.8766 1.94385 15.4843 1.94385H25.8514C26.4593 1.94385 26.953 2.4375 26.953 3.04531Z" fill="white"/>
<path d="M45.6132 3.04531V23.7796C45.6132 24.3874 45.1194 24.8811 44.5117 24.8811H40.3V16.2984C41.5039 15.8914 42.3734 14.7524 42.3734 13.4125C42.3734 11.733 41.0075 10.3671 39.3281 10.3671C37.6486 10.3671 36.2827 11.733 36.2827 13.4125C36.2827 14.7524 37.1522 15.8915 38.3561 16.2984V24.8811H34.1444C33.5366 24.8811 33.043 24.3873 33.043 23.7796V15.889L34.8313 14.0993C35.2112 13.7196 35.2112 13.1053 34.8313 12.7257L33.043 10.936V3.04531C33.043 2.4375 33.5367 1.94385 34.1444 1.94385H44.5116C45.1195 1.94385 45.6132 2.4375 45.6132 3.04531Z" fill="white"/>
<path d="M39.3319 12.311C39.9397 12.311 40.4334 12.8048 40.4334 13.4125C40.4334 14.0202 39.9396 14.514 39.3319 14.514C38.7242 14.514 38.2305 14.0202 38.2305 13.4125C38.2305 12.8048 38.7242 12.311 39.3319 12.311Z" fill="#C2E95D"/>
<path d="M47.5603 36.2202V56.9545C47.5603 58.634 46.1944 59.9999 44.5149 59.9999H34.1478C32.4683 59.9999 31.1024 58.634 31.1024 56.9545V36.2202C31.1024 34.5408 32.4683 33.1749 34.1478 33.1749H38.3595V26.825H34.1478C32.4683 26.825 31.1024 25.4591 31.1024 23.7797V17.492C31.0804 17.4933 31.0596 17.4946 31.0377 17.4946C30.7888 17.4946 30.54 17.4 30.3508 17.2095C29.9709 16.8297 29.9709 16.2155 30.3508 15.8359L31.8008 14.3845H28.8993V23.7797C28.8993 25.4591 27.5334 26.825 25.8539 26.825H21.6422V33.1749H25.8539C27.5334 33.1749 28.8993 34.5408 28.8993 36.2202V56.9545C28.8993 58.634 27.5334 59.9999 25.8539 59.9999H15.4868C13.8073 59.9999 12.4414 58.634 12.4414 56.9545V36.2202C12.4414 34.5408 13.8073 33.1749 15.4868 33.1749H19.6984V26.825H15.4868C13.8073 26.825 12.4414 25.4591 12.4414 23.7797V3.04535C12.4414 1.36589 13.8073 0 15.4868 0H25.8539C27.5334 0 28.8993 1.36589 28.8993 3.04535V12.4406H31.8008L30.3508 10.9892C29.9709 10.6094 29.9709 9.99515 30.3508 9.61552C30.5568 9.40823 30.8328 9.31614 31.1024 9.33303V3.04535C31.1024 1.36589 32.4683 0 34.1478 0H44.5149C46.1944 0 47.5603 1.36589 47.5603 3.04535V23.7797C47.5603 25.4591 46.1944 26.825 44.5149 26.825H40.3032V33.1749H44.5149C46.1944 33.1749 47.5603 34.5408 47.5603 36.2202ZM45.6164 56.9546V36.2202C45.6164 35.6124 45.1226 35.1188 44.5149 35.1188H40.3032V39.057L41.7547 37.6069C42.1344 37.2271 42.7486 37.2271 43.1283 37.6069C43.5081 37.9866 43.5081 38.6009 43.1283 38.9805L40.0182 42.0906C40.0169 42.0919 40.0156 42.0932 40.0143 42.0945C39.9936 42.1152 39.9702 42.1359 39.947 42.1554C39.9366 42.1644 39.9249 42.1723 39.9133 42.18C39.8991 42.1916 39.8861 42.2021 39.8705 42.2124C39.8573 42.2214 39.8445 42.2293 39.8301 42.237C39.816 42.2448 39.8029 42.2539 39.7888 42.2604C39.7757 42.2681 39.7616 42.2746 39.7474 42.2811C39.7318 42.2889 39.7177 42.2953 39.7033 42.3019C39.6891 42.3071 39.6748 42.3122 39.6605 42.3175C39.6449 42.3227 39.6294 42.3291 39.6138 42.3344C39.5997 42.3383 39.5853 42.3408 39.5697 42.3447C39.5541 42.3486 39.5373 42.3537 39.5204 42.3563C39.5048 42.3602 39.488 42.3628 39.4711 42.3641C39.4555 42.3667 39.4413 42.3692 39.427 42.3705C39.3946 42.3744 39.3636 42.3757 39.3312 42.3757C39.2988 42.3757 39.2677 42.3744 39.2353 42.3705C39.2213 42.3692 39.2068 42.3667 39.1912 42.3641C39.1743 42.3628 39.1576 42.3602 39.142 42.3563C39.1251 42.3537 39.1083 42.3486 39.0927 42.3447C39.0771 42.3408 39.0629 42.3383 39.0486 42.3344C39.033 42.3292 39.0175 42.3228 39.0019 42.3175C38.9877 42.3123 38.9734 42.3072 38.9591 42.3019C38.9449 42.2954 38.9306 42.289 38.9149 42.2811C38.9008 42.2747 38.8864 42.2682 38.8735 42.2604C38.8595 42.2539 38.8463 42.2448 38.8322 42.237C38.818 42.2293 38.805 42.2214 38.7919 42.2124C38.7763 42.2021 38.7634 42.1916 38.7491 42.18C38.7375 42.1723 38.7257 42.1644 38.7154 42.1554C38.692 42.1359 38.6687 42.1152 38.6481 42.0945C38.6466 42.0932 38.6454 42.0919 38.6442 42.0906L35.5341 38.9805C35.1542 38.6008 35.1542 37.9865 35.5341 37.6069C35.9138 37.2271 36.5281 37.2271 36.9077 37.6069L38.3591 39.057V35.1188H34.1474C33.5396 35.1188 33.046 35.6125 33.046 36.2202V56.9545C33.046 57.5623 33.5397 58.056 34.1474 58.056H44.5146C45.1227 58.0561 45.6164 57.5623 45.6164 56.9546ZM45.6164 23.7797V3.04535C45.6164 2.43755 45.1226 1.94389 44.5149 1.94389H34.1478C33.54 1.94389 33.0463 2.43767 33.0463 3.04535V10.936L34.8347 12.7256C35.2145 13.1054 35.2145 13.7196 34.8347 14.0993L33.0463 15.8889V23.7795C33.0463 24.3873 33.5401 24.881 34.1478 24.881H38.3595V16.2983C37.1556 15.8914 36.2861 14.7524 36.2861 13.4124C36.2861 11.7329 37.6519 10.367 39.3314 10.367C41.0109 10.367 42.3768 11.7329 42.3768 13.4124C42.3768 14.7524 41.5072 15.8915 40.3034 16.2983V24.881H44.515C45.1227 24.8812 45.6164 24.3875 45.6164 23.7797ZM40.4329 13.4125C40.4329 12.8047 39.9391 12.311 39.3314 12.311C38.7237 12.311 38.2299 12.8048 38.2299 13.4125C38.2299 14.0202 38.7237 14.514 39.3314 14.514C39.9391 14.514 40.4329 14.0203 40.4329 13.4125ZM26.9555 56.9546V36.2202C26.9555 35.6124 26.4617 35.1188 25.854 35.1188H21.6423V39.057L23.0938 37.6069C23.4735 37.2271 24.0878 37.2271 24.4674 37.6069C24.8472 37.9866 24.8472 38.6009 24.4674 38.9805L21.3573 42.0906C21.356 42.0919 21.3547 42.0932 21.3534 42.0945C21.3327 42.1152 21.3093 42.1359 21.2861 42.1554C21.2757 42.1644 21.264 42.1723 21.2524 42.18C21.2381 42.1916 21.2252 42.2021 21.2096 42.2124C21.1964 42.2214 21.1836 42.2293 21.1692 42.237C21.1551 42.2448 21.142 42.2539 21.1279 42.2604C21.1148 42.2681 21.1007 42.2746 21.0864 42.2811C21.0708 42.2889 21.0566 42.2953 21.0423 42.3019C21.028 42.3071 21.0138 42.3122 20.9995 42.3175C20.9839 42.3227 20.9684 42.3291 20.9528 42.3344C20.9387 42.3383 20.9243 42.3408 20.9087 42.3447C20.8931 42.3486 20.8763 42.3537 20.8594 42.3563C20.8438 42.3602 20.827 42.3628 20.8101 42.3641C20.7945 42.3667 20.7803 42.3692 20.766 42.3705C20.7336 42.3744 20.7025 42.3757 20.6702 42.3757C20.6378 42.3757 20.6067 42.3744 20.5743 42.3705C20.5602 42.3692 20.5458 42.3667 20.5302 42.3641C20.5133 42.3628 20.4965 42.3602 20.4809 42.3563C20.464 42.3537 20.4473 42.3486 20.4317 42.3447C20.4161 42.3408 20.4019 42.3383 20.3876 42.3344C20.3719 42.3292 20.3565 42.3228 20.3409 42.3175C20.3265 42.3123 20.3124 42.3072 20.298 42.3019C20.2837 42.2954 20.2695 42.289 20.2539 42.2811C20.2396 42.2747 20.2254 42.2682 20.2124 42.2604C20.1983 42.2539 20.1852 42.2448 20.1711 42.237C20.1568 42.2293 20.1439 42.2214 20.1308 42.2124C20.1151 42.2021 20.1022 42.1916 20.0879 42.18C20.0763 42.1723 20.0646 42.1644 20.0543 42.1554C20.0309 42.1359 20.0076 42.1152 19.9869 42.0945C19.9855 42.0932 19.9843 42.0919 19.9831 42.0906L16.8729 38.9805C16.4931 38.6008 16.4931 37.9865 16.8729 37.6069C17.2527 37.2271 17.8669 37.2271 18.2466 37.6069L19.698 39.057V35.1188H15.4863C14.8785 35.1188 14.3848 35.6125 14.3848 36.2202V56.9545C14.3848 57.5623 14.8786 58.056 15.4863 58.056H25.8534C26.4618 58.0561 26.9555 57.5623 26.9555 56.9546ZM26.9555 23.7797V14.3845H23.5563C23.2518 15.2825 22.5404 15.994 21.6422 16.2985V24.8812H25.8539C26.4618 24.8812 26.9555 24.3875 26.9555 23.7797ZM26.9555 12.4406V3.04535C26.9555 2.43755 26.4617 1.94389 25.854 1.94389H15.4869C14.8791 1.94389 14.3854 2.43767 14.3854 3.04535V23.7797C14.3854 24.3875 14.8792 24.8811 15.4869 24.8811H19.6986V16.2984C18.4947 15.8915 17.6252 14.7525 17.6252 13.4125C17.6252 11.733 18.991 10.3672 20.6705 10.3672C22.0105 10.3672 23.1496 11.2367 23.5564 12.4406H26.9555ZM21.772 13.4125C21.772 12.8047 21.2782 12.311 20.6705 12.311C20.0628 12.311 19.5691 12.8048 19.5691 13.4125C19.5691 14.0202 20.0628 14.514 20.6705 14.514C21.2782 14.514 21.772 14.0203 21.772 13.4125Z" fill="#FF5B46"/>
<path d="M39.3305 43.5421C41.01 43.5421 42.3759 44.908 42.3759 46.5875C42.3759 48.2669 41.01 49.6328 39.3305 49.6328C37.651 49.6328 36.2852 48.2669 36.2852 46.5875C36.2852 44.9079 37.651 43.5421 39.3305 43.5421ZM40.4321 46.5875C40.4321 45.9797 39.9383 45.486 39.3306 45.486C38.7229 45.486 38.2292 45.9798 38.2292 46.5875C38.2292 47.1953 38.7229 47.6889 39.3306 47.6889C39.9383 47.6889 40.4321 47.1952 40.4321 46.5875Z" fill="#FF5B46"/>
<path d="M39.3319 45.486C39.9397 45.486 40.4334 45.9797 40.4334 46.5874C40.4334 47.1952 39.9396 47.6889 39.3319 47.6889C38.7242 47.6889 38.2305 47.1951 38.2305 46.5874C38.2305 45.9797 38.7242 45.486 39.3319 45.486Z" fill="#C2E95D"/>
<path d="M20.6704 43.5421C22.3498 43.5421 23.7157 44.908 23.7157 46.5875C23.7157 48.2669 22.3498 49.6328 20.6704 49.6328C18.9909 49.6328 17.625 48.2669 17.625 46.5875C17.625 44.9079 18.9909 43.5421 20.6704 43.5421ZM21.7719 46.5875C21.7719 45.9797 21.2782 45.486 20.6705 45.486C20.0628 45.486 19.569 45.9798 19.569 46.5875C19.569 47.1953 20.0628 47.6889 20.6705 47.6889C21.2782 47.6889 21.7719 47.1952 21.7719 46.5875Z" fill="#FF5B46"/>
<path d="M20.6679 12.311C21.2757 12.311 21.7693 12.8048 21.7693 13.4125C21.7693 14.0202 21.2756 14.514 20.6679 14.514C20.0602 14.514 19.5664 14.0202 19.5664 13.4125C19.5664 12.8048 20.0602 12.311 20.6679 12.311Z" fill="#C2E95D"/>
<path d="M20.6679 45.486C21.2757 45.486 21.7693 45.9797 21.7693 46.5874C21.7693 47.1952 21.2756 47.6889 20.6679 47.6889C20.0602 47.6889 19.5664 47.1951 19.5664 46.5874C19.5664 45.9797 20.0602 45.486 20.6679 45.486Z" fill="#C2E95D"/>
</g>
<defs>
<clipPath id="clip0_1063_179">
<rect width="60" height="60" fill="white"/>
</clipPath>
</defs>
</svg>
