<svg width="60" height="60" viewBox="0 0 60 60" fill="none" xmlns="http://www.w3.org/2000/svg">
<path d="M19.8882 36.8727C21.7974 38.7819 24.3056 39.7366 26.8137 39.7366C29.3217 39.7366 31.8299 38.7819 33.7392 36.8726C35.5893 35.0227 36.608 32.5632 36.608 29.9472C36.608 27.3312 35.5893 24.8715 33.7392 23.0216C29.9207 19.2031 23.7067 19.2031 19.8883 23.0216C18.0382 24.8714 17.0195 27.331 17.0195 29.947C17.0195 32.5631 18.0381 35.0228 19.8882 36.8727ZM21.2277 24.3615C24.3079 21.2816 29.3196 21.2817 32.3994 24.3615C33.8914 25.8536 34.7131 27.8372 34.7131 29.9472C34.7131 32.0571 33.8913 34.0407 32.3994 35.5327C29.3193 38.6127 24.3078 38.6127 21.2277 35.5327C19.7357 34.0407 18.9141 32.0571 18.9141 29.9472C18.9141 27.8372 19.7358 25.8536 21.2277 24.3615Z" fill="#FF5B46"/>
<path d="M55.8233 50.4956L47.306 41.9567C49.2711 38.6057 50.376 34.8269 50.5304 30.9341H54.6279C55.2291 30.9341 55.812 30.6849 56.2276 30.2503C56.6481 29.8107 56.8649 29.2341 56.8379 28.6271C56.5036 21.1328 53.3922 14.0782 48.0767 8.76289C42.7614 3.44775 35.7067 0.336308 28.2123 0.00208946C27.6055 -0.0238089 27.0288 0.191698 26.5889 0.612284C26.1544 1.02783 25.9051 1.61107 25.9051 2.21224V6.30969C13.2767 6.80856 3.15625 17.2381 3.15625 29.9866C3.15625 43.0525 13.7864 53.6825 26.8528 53.6825C31.0755 53.6825 35.1948 52.565 38.8154 50.4439L47.3335 58.9837C48.0111 59.6613 48.9007 60 49.7907 60C50.6805 60 51.5706 59.6612 52.2479 58.9837L55.8224 55.4093C56.4789 54.7529 56.8404 53.8803 56.8404 52.9521C56.8403 52.0237 56.4789 51.1511 55.8233 50.4956ZM45.9186 40.5656L44.9104 39.555C44.9102 39.5548 44.91 39.5546 44.9096 39.5543C44.2532 38.8979 43.3807 38.5364 42.4524 38.5364C41.8491 38.5364 41.2692 38.6891 40.757 38.9762L39.0231 37.2426C40.1662 35.3371 40.8439 33.1871 40.9973 30.9343H48.6339C48.488 34.3225 47.5593 37.6143 45.9186 40.5656ZM39.3253 40.224L37.0905 42.4588L35.6877 41.056C36.0954 40.7298 36.4891 40.3779 36.8667 40.0003C37.243 39.6242 37.5952 39.231 37.9233 38.8218L39.3253 40.224ZM27.8001 2.21212C27.8001 2.09365 27.8619 2.01689 27.8987 1.98162C27.9349 1.94716 28.0124 1.88962 28.1279 1.89502C42.7634 2.54787 54.2926 14.0764 54.9453 28.7114C54.9503 28.8266 54.8931 28.9046 54.8585 28.9407C54.8232 28.9776 54.7463 29.0393 54.6279 29.0393H41.0026C40.7864 25.5833 39.337 22.3644 36.8666 19.894C34.3455 17.373 31.1052 15.9986 27.8001 15.7705V2.21212ZM26.8133 17.6305C29.9689 17.6305 33.1246 18.8316 35.5269 21.2338C37.8543 23.5612 39.1361 26.6556 39.1361 29.9472C39.1361 29.95 39.1361 29.953 39.1361 29.9557C39.1358 29.9659 39.1357 29.9764 39.1357 29.9866C39.1357 29.995 39.1358 30.0033 39.136 30.0119C39.1235 32.4606 38.4013 34.798 37.0667 36.7889C37.0397 36.8233 37.0154 36.8592 36.9938 36.8963C36.5648 37.5219 36.075 38.1123 35.5269 38.6604C34.9626 39.2247 34.3571 39.7224 33.7195 40.1541C33.7125 40.1588 33.7055 40.1635 33.6985 40.1683C31.6258 41.5655 29.2199 42.2639 26.8131 42.2638C23.6578 42.2636 20.5015 41.0623 18.0995 38.6604C15.772 36.333 14.4903 33.2384 14.4903 29.9471C14.4903 26.6556 15.7719 23.5612 18.0995 21.2337C20.5021 18.8315 23.6577 17.6305 26.8133 17.6305ZM26.8528 51.7876C14.8313 51.7876 5.05105 42.0077 5.05105 29.9866C5.05105 18.2831 14.3221 8.70407 25.9055 8.2059V15.7653C22.5728 15.9765 19.3013 17.3528 16.7601 19.894C14.0746 22.5793 12.5957 26.1496 12.5957 29.9472C12.5957 33.7448 14.0746 37.315 16.7601 40.0003C21.4562 44.6963 28.6468 45.4145 34.1059 42.1536L35.8427 43.8905C35.5556 44.4027 35.4029 44.9824 35.4029 45.5857C35.4029 46.5138 35.7644 47.3866 36.42 48.0421L37.4288 49.0536C34.2038 50.8457 30.5719 51.7876 26.8528 51.7876ZM54.4829 54.0692L50.9083 57.6437C50.292 58.2601 49.2895 58.2599 48.674 57.6446L39.6444 48.5919C39.6351 48.5822 39.6256 48.5727 39.6159 48.5636L37.7604 46.7032C37.462 46.4047 37.2976 46.0079 37.2976 45.5858C37.2976 45.1638 37.462 44.7669 37.7604 44.4686L41.3352 40.894C41.9512 40.2779 42.9538 40.2777 43.5698 40.894L45.4251 42.7541C45.4341 42.7636 45.4435 42.7729 45.4529 42.782L54.4826 51.8347C54.7811 52.1332 54.9454 52.53 54.9454 52.952C54.9455 53.3739 54.7813 53.7707 54.4829 54.0692Z" fill="#FF5B46"/>
</svg>
