<svg width="40" height="40" viewBox="0 0 40 40" fill="none" xmlns="http://www.w3.org/2000/svg">
<path fill-rule="evenodd" clip-rule="evenodd" d="M18.0535 2.07987C19.2965 1.52872 20.7035 1.52872 21.9465 2.07987L36.3325 8.45884C39.6252 9.91885 38.6172 14.9998 35.0348 14.9998H4.9651C1.38278 14.9998 0.374818 9.91884 3.66745 8.45884L18.0535 2.07987ZM20.6488 5.21259C20.2345 5.02887 19.7655 5.02887 19.3512 5.21259L5.6846 11.2724C5.51997 11.3454 5.57207 11.5914 5.75215 11.5914H34.2478C34.428 11.5914 34.48 11.3454 34.3153 11.2724L20.6488 5.21259Z" fill="#222222"/>
<path d="M3.33333 36.6667C3.33333 35.7462 4.07953 35 5 35H35C35.9205 35 36.6667 35.7462 36.6667 36.6667C36.6667 37.5872 35.9205 38.3333 35 38.3333H5C4.07953 38.3333 3.33333 37.5872 3.33333 36.6667Z" fill="#222222"/>
<path d="M18.3333 31.6665C18.3333 32.587 19.0795 33.3332 20 33.3332C20.9205 33.3332 21.6667 32.587 21.6667 31.6665V18.3332C21.6667 17.4127 20.9205 16.6665 20 16.6665C19.0795 16.6665 18.3333 17.4127 18.3333 18.3332V31.6665Z" fill="#222222"/>
<path d="M10 33.3332C9.07953 33.3332 8.33333 32.587 8.33333 31.6665V18.3332C8.33333 17.4127 9.07952 16.6665 10 16.6665C10.9205 16.6665 11.6667 17.4127 11.6667 18.3332V31.6665C11.6667 32.587 10.9205 33.3332 10 33.3332Z" fill="#222222"/>
<path d="M28.3333 31.6665C28.3333 32.587 29.0795 33.3332 30 33.3332C30.9205 33.3332 31.6667 32.587 31.6667 31.6665V18.3332C31.6667 17.4127 30.9205 16.6665 30 16.6665C29.0795 16.6665 28.3333 17.4127 28.3333 18.3332V31.6665Z" fill="#222222"/>
</svg>
