<svg width="42" height="42" viewBox="0 0 42 42" fill="none" xmlns="http://www.w3.org/2000/svg">
<path d="M9.51351 18.027C14.2154 18.027 18.027 14.2154 18.027 9.51351C18.027 4.81163 14.2154 1 9.51351 1C4.81163 1 1 4.81163 1 9.51351C1 14.2154 4.81163 18.027 9.51351 18.027Z" stroke="#222222" stroke-width="2"/>
<path d="M9.51351 41.0002C14.2154 41.0002 18.027 37.1885 18.027 32.4867C18.027 27.7848 14.2154 23.9731 9.51351 23.9731C4.81163 23.9731 1 27.7848 1 32.4867C1 37.1885 4.81163 41.0002 9.51351 41.0002Z" stroke="#222222" stroke-width="2"/>
<path d="M32.4865 41.0002C37.1884 41.0002 41 37.1885 41 32.4867C41 27.7848 37.1884 23.9731 32.4865 23.9731C27.7847 23.9731 23.973 27.7848 23.973 32.4867C23.973 37.1885 27.7847 41.0002 32.4865 41.0002Z" stroke="#222222" stroke-width="2"/>
<path d="M25.5946 2.62158L32.4865 9.51347M32.4865 9.51347L39.3784 16.4054M32.4865 9.51347L39.3784 2.62158M32.4865 9.51347L25.5946 16.4054" stroke="#222222" stroke-width="2" stroke-linecap="round"/>
</svg>
