<svg width="40" height="40" viewBox="0 0 40 40" fill="none" xmlns="http://www.w3.org/2000/svg">
<path d="M30.8334 14.9999H27.5M27.5 14.9999H24.1667M27.5 14.9999V11.6665M27.5 14.9999V18.3332" stroke="#222222" stroke-width="3.75" stroke-linecap="round"/>
<path d="M20 9.28999L19.087 10.1437C19.3233 10.3965 19.6538 10.54 20 10.54C20.3462 10.54 20.6767 10.3965 20.913 10.1437L20 9.28999ZM4.41933 22.8033C4.77659 23.3941 5.54509 23.5833 6.13581 23.2261C6.72653 22.8688 6.91578 22.1003 6.55851 21.5096L4.41933 22.8033ZM10.8956 26.951C10.4139 26.4563 9.62254 26.4458 9.12794 26.9275C8.63334 27.409 8.62283 28.2005 9.10446 28.695L10.8956 26.951ZM4.58334 15.529C4.58334 10.6879 6.69611 7.69531 9.31004 6.67177C11.9182 5.65051 15.5673 6.37942 19.087 10.1437L20.913 8.43627C16.933 4.17952 12.2487 2.83624 8.39851 4.34387C4.55404 5.84924 2.08334 9.98661 2.08334 15.529H4.58334ZM25.8515 33.2681C28.3388 31.2496 31.319 28.5445 33.6878 25.5231C36.0327 22.5325 37.9167 19.0588 37.9167 15.5289H35.4167C35.4167 18.2146 33.9512 21.1355 31.7205 23.9805C29.514 26.7948 26.6927 29.366 24.2762 31.327L25.8515 33.2681ZM37.9167 15.5289C37.9167 9.98659 35.446 5.84922 31.6015 4.34387C27.7513 2.83624 23.067 4.17952 19.087 8.43627L20.913 10.1437C24.4327 6.37942 28.0818 5.65049 30.69 6.67177C33.3038 7.69529 35.4167 10.6879 35.4167 15.5289H37.9167ZM14.1486 33.2681C16.2676 34.9878 17.7372 36.2498 20 36.2498V33.7498C18.7952 33.7498 18.0448 33.2103 15.7239 31.327L14.1486 33.2681ZM24.2762 31.327C21.9552 33.2103 21.2048 33.7498 20 33.7498V36.2498C22.2628 36.2498 23.7323 34.9878 25.8515 33.2681L24.2762 31.327ZM6.55851 21.5096C5.31353 19.4511 4.58334 17.4248 4.58334 15.529H2.08334C2.08334 18.0493 3.04411 20.5296 4.41933 22.8033L6.55851 21.5096ZM15.7239 31.327C14.1955 30.0866 12.4982 28.5968 10.8956 26.951L9.10446 28.695C10.7925 30.4285 12.5666 31.9845 14.1486 33.2681L15.7239 31.327Z" fill="#222222"/>
</svg>
