<svg width="36" height="32" viewBox="0 0 36 32" fill="none" xmlns="http://www.w3.org/2000/svg">
<path d="M27.8167 30.7502H8.18333C7.65386 30.7507 7.13952 30.5736 6.72256 30.2473C6.3056 29.921 6.01011 29.4643 5.88333 28.9502L1.46667 11.2669C1.42357 11.0947 1.42031 10.915 1.45714 10.7414C1.49397 10.5678 1.56992 10.4049 1.6792 10.2651C1.78849 10.1253 1.92823 10.0122 2.08779 9.93457C2.24736 9.8569 2.42254 9.81665 2.6 9.8169H33.4C33.5775 9.81665 33.7526 9.8569 33.9122 9.93457C34.0718 10.0122 34.2115 10.1253 34.3208 10.2651C34.4301 10.4049 34.506 10.5678 34.5429 10.7414C34.5797 10.915 34.5764 11.0947 34.5333 11.2669L30.1167 28.9502C29.9899 29.4643 29.6944 29.921 29.2774 30.2473C28.8605 30.5736 28.3461 30.7507 27.8167 30.7502Z" stroke="#222222" stroke-width="2" stroke-linecap="round" stroke-linejoin="round"/>
<path d="M14.3333 1.25L9.5 9.81667" stroke="#222222" stroke-width="2" stroke-linecap="round" stroke-linejoin="round"/>
<path d="M21.1333 1.25L25.9833 9.81667" stroke="#222222" stroke-width="2" stroke-linecap="round" stroke-linejoin="round"/>
</svg>
