<svg width="40" height="40" viewBox="0 0 40 40" fill="none" xmlns="http://www.w3.org/2000/svg">
<path d="M34.4 35.1998H5.60005C5.15205 35.1998 4.80005 34.6425 4.80005 33.9331V6.06648C4.80005 5.35713 5.15205 4.7998 5.60005 4.7998H34.4C34.848 4.7998 35.2 5.35713 35.2 6.06648V33.9331C35.2 34.6425 34.848 35.1998 34.4 35.1998Z" stroke="#222222" stroke-width="2" stroke-miterlimit="10" stroke-linecap="round" stroke-linejoin="round"/>
<path d="M32 16.7998H28.8" stroke="#222222" stroke-width="2" stroke-miterlimit="10" stroke-linecap="round" stroke-linejoin="round"/>
<path d="M32 23.2002H28.8" stroke="#222222" stroke-width="2" stroke-miterlimit="10" stroke-linecap="round" stroke-linejoin="round"/>
<path d="M11.2 23.2002H8" stroke="#222222" stroke-width="2" stroke-miterlimit="10" stroke-linecap="round" stroke-linejoin="round"/>
<path d="M11.2 16.7998H8" stroke="#222222" stroke-width="2" stroke-miterlimit="10" stroke-linecap="round" stroke-linejoin="round"/>
<path d="M32 9.6001H28.8" stroke="#222222" stroke-width="2" stroke-miterlimit="10" stroke-linecap="round" stroke-linejoin="round"/>
<path d="M11.2 10.3999H8" stroke="#222222" stroke-width="2" stroke-miterlimit="10" stroke-linecap="round" stroke-linejoin="round"/>
<path d="M32 28.7998H28.8" stroke="#222222" stroke-width="2" stroke-miterlimit="10" stroke-linecap="round" stroke-linejoin="round"/>
<path d="M11.2 29.6001H8" stroke="#222222" stroke-width="2" stroke-miterlimit="10" stroke-linecap="round" stroke-linejoin="round"/>
<path d="M22.7821 19.2078L18.1741 16.2638C17.5821 15.8798 16.7981 16.3278 16.7981 17.0478V22.9518C16.7981 23.6718 17.5821 24.1198 18.1741 23.7358L22.7821 20.7918C23.3421 20.4078 23.3421 19.5758 22.7821 19.2078Z" stroke="#222222" stroke-width="2" stroke-miterlimit="10" stroke-linecap="round" stroke-linejoin="round"/>
</svg>
