<svg width="40" height="40" viewBox="0 0 40 40" fill="none" xmlns="http://www.w3.org/2000/svg">
<path fill-rule="evenodd" clip-rule="evenodd" d="M18.0538 2.07987C19.2968 1.52872 20.7038 1.52872 21.9468 2.07987L36.3328 8.45884C39.6255 9.91885 38.6175 14.9998 35.0352 14.9998H4.96543C1.38311 14.9998 0.375145 9.91884 3.66778 8.45884L18.0538 2.07987ZM20.6492 5.21259C20.2348 5.02887 19.7658 5.02887 19.3515 5.21259L5.68493 11.2724C5.52029 11.3454 5.57239 11.5914 5.75248 11.5914H34.2482C34.4283 11.5914 34.4803 11.3454 34.3157 11.2724L20.6492 5.21259Z" fill="#222222"/>
<path d="M3.33301 36.6667C3.33301 35.7462 4.07921 35 4.99967 35H34.9997C35.9202 35 36.6663 35.7462 36.6663 36.6667C36.6663 37.5872 35.9202 38.3333 34.9997 38.3333H4.99967C4.07921 38.3333 3.33301 37.5872 3.33301 36.6667Z" fill="#222222"/>
<path d="M18.333 31.6665C18.333 32.587 19.0792 33.3332 19.9997 33.3332C20.9202 33.3332 21.6663 32.587 21.6663 31.6665V18.3332C21.6663 17.4127 20.9202 16.6665 19.9997 16.6665C19.0792 16.6665 18.333 17.4127 18.333 18.3332V31.6665Z" fill="#222222"/>
<path d="M9.99967 33.3332C9.07921 33.3332 8.33301 32.587 8.33301 31.6665V18.3332C8.33301 17.4127 9.07919 16.6665 9.99967 16.6665C10.9201 16.6665 11.6663 17.4127 11.6663 18.3332V31.6665C11.6663 32.587 10.9202 33.3332 9.99967 33.3332Z" fill="#222222"/>
<path d="M28.333 31.6665C28.333 32.587 29.0792 33.3332 29.9997 33.3332C30.9202 33.3332 31.6663 32.587 31.6663 31.6665V18.3332C31.6663 17.4127 30.9202 16.6665 29.9997 16.6665C29.0792 16.6665 28.333 17.4127 28.333 18.3332V31.6665Z" fill="#222222"/>
</svg>
