<svg width="40" height="40" viewBox="0 0 40 40" fill="none" xmlns="http://www.w3.org/2000/svg">
<path d="M29.8166 34.75H10.1832C9.65377 34.7505 9.13943 34.5734 8.72247 34.2471C8.3055 33.9208 8.01001 33.4641 7.88324 32.95L3.46657 15.2667C3.42347 15.0945 3.42021 14.9148 3.45704 14.7412C3.49387 14.5676 3.56982 14.4047 3.67911 14.2649C3.78839 14.125 3.92813 14.012 4.0877 13.9343C4.24726 13.8567 4.42244 13.8164 4.5999 13.8167H35.3999C35.5774 13.8164 35.7525 13.8567 35.9121 13.9343C36.0717 14.012 36.2114 14.125 36.3207 14.2649C36.43 14.4047 36.5059 14.5676 36.5428 14.7412C36.5796 14.9148 36.5763 15.0945 36.5332 15.2667L32.1166 32.95C31.9898 33.4641 31.6943 33.9208 31.2773 34.2471C30.8604 34.5734 30.346 34.7505 29.8166 34.75Z" stroke="#222222" stroke-width="2" stroke-linecap="round" stroke-linejoin="round"/>
<path d="M16.3333 5.25L11.5 13.8167" stroke="#222222" stroke-width="2" stroke-linecap="round" stroke-linejoin="round"/>
<path d="M23.1328 5.25L27.9828 13.8167" stroke="#222222" stroke-width="2" stroke-linecap="round" stroke-linejoin="round"/>
</svg>
