<svg width="40" height="40" viewBox="0 0 40 40" fill="none" xmlns="http://www.w3.org/2000/svg">
<path d="M34.3998 35.1998H5.5998C5.1518 35.1998 4.7998 34.6425 4.7998 33.9331V6.06648C4.7998 5.35713 5.1518 4.7998 5.5998 4.7998H34.3998C34.8478 4.7998 35.1998 5.35713 35.1998 6.06648V33.9331C35.1998 34.6425 34.8478 35.1998 34.3998 35.1998Z" stroke="#222222" stroke-width="2" stroke-miterlimit="10" stroke-linecap="round" stroke-linejoin="round"/>
<path d="M31.9998 16.7998H28.7998" stroke="#222222" stroke-width="2" stroke-miterlimit="10" stroke-linecap="round" stroke-linejoin="round"/>
<path d="M31.9998 23.2002H28.7998" stroke="#222222" stroke-width="2" stroke-miterlimit="10" stroke-linecap="round" stroke-linejoin="round"/>
<path d="M11.2 23.2002H8" stroke="#222222" stroke-width="2" stroke-miterlimit="10" stroke-linecap="round" stroke-linejoin="round"/>
<path d="M11.2 16.7998H8" stroke="#222222" stroke-width="2" stroke-miterlimit="10" stroke-linecap="round" stroke-linejoin="round"/>
<path d="M31.9998 9.6001H28.7998" stroke="#222222" stroke-width="2" stroke-miterlimit="10" stroke-linecap="round" stroke-linejoin="round"/>
<path d="M11.2 10.3999H8" stroke="#222222" stroke-width="2" stroke-miterlimit="10" stroke-linecap="round" stroke-linejoin="round"/>
<path d="M31.9998 28.7998H28.7998" stroke="#222222" stroke-width="2" stroke-miterlimit="10" stroke-linecap="round" stroke-linejoin="round"/>
<path d="M11.2 29.6001H8" stroke="#222222" stroke-width="2" stroke-miterlimit="10" stroke-linecap="round" stroke-linejoin="round"/>
<path d="M22.7819 19.2078L18.1739 16.2638C17.5819 15.8798 16.7979 16.3278 16.7979 17.0478V22.9518C16.7979 23.6718 17.5819 24.1198 18.1739 23.7358L22.7819 20.7918C23.3419 20.4078 23.3419 19.5758 22.7819 19.2078Z" stroke="#222222" stroke-width="2" stroke-miterlimit="10" stroke-linecap="round" stroke-linejoin="round"/>
</svg>
