<svg width="40" height="40" viewBox="0 0 40 40" fill="none" xmlns="http://www.w3.org/2000/svg">
<path d="M30.8337 15.0001H27.5003M27.5003 15.0001H24.167M27.5003 15.0001V11.6667M27.5003 15.0001V18.3334" stroke="#222222" stroke-width="3.75" stroke-linecap="round"/>
<path d="M19.9997 9.29023L19.0867 10.144C19.323 10.3968 19.6535 10.5402 19.9997 10.5402C20.3458 10.5402 20.6763 10.3968 20.9127 10.144L19.9997 9.29023ZM4.41899 22.8035C4.77626 23.3944 5.54476 23.5835 6.13547 23.2264C6.72619 22.869 6.91544 22.1005 6.55817 21.5099L4.41899 22.8035ZM10.8952 26.9512C10.4136 26.4565 9.62221 26.446 9.12761 26.9277C8.63301 27.4092 8.62249 28.2007 9.10412 28.6952L10.8952 26.9512ZM4.58301 15.5292C4.58301 10.6882 6.69577 7.69555 9.30971 6.67202C11.9179 5.65075 15.567 6.37967 19.0867 10.144L20.9127 8.43652C16.9327 4.17977 12.2484 2.83648 8.39817 4.34412C4.55371 5.84948 2.08301 9.98685 2.08301 15.5292H4.58301ZM25.8512 33.2684C28.3385 31.2499 31.3187 28.5447 33.6875 25.5234C36.0323 22.5327 37.9163 19.059 37.9163 15.5292H35.4163C35.4163 18.2149 33.9508 21.1357 31.7202 23.9807C29.5137 26.795 26.6923 29.3662 24.2758 31.3272L25.8512 33.2684ZM37.9163 15.5292C37.9163 9.98683 35.4457 5.84947 31.6012 4.34412C27.751 2.83648 23.0667 4.17977 19.0867 8.43652L20.9127 10.144C24.4323 6.37967 28.0815 5.65073 30.6897 6.67202C33.3035 7.69553 35.4163 10.6881 35.4163 15.5292H37.9163ZM14.1482 33.2684C16.2673 34.988 17.7368 36.25 19.9997 36.25V33.75C18.7948 33.75 18.0445 33.2105 15.7235 31.3272L14.1482 33.2684ZM24.2758 31.3272C21.9548 33.2105 21.2045 33.75 19.9997 33.75V36.25C22.2625 36.25 23.732 34.988 25.8512 33.2684L24.2758 31.3272ZM6.55817 21.5099C5.31319 19.4514 4.58301 17.425 4.58301 15.5292H2.08301C2.08301 18.0495 3.04377 20.5299 4.41899 22.8035L6.55817 21.5099ZM15.7235 31.3272C14.1952 30.0869 12.4979 28.597 10.8952 26.9512L9.10412 28.6952C10.7921 30.4287 12.5663 31.9847 14.1482 33.2684L15.7235 31.3272Z" fill="#222222"/>
</svg>
