<svg width="40" height="32" viewBox="0 0 40 32" fill="none" xmlns="http://www.w3.org/2000/svg">
<path d="M37.7908 27.9587H35.8787C35.6289 27.9587 35.4263 27.7562 35.4263 27.5063C35.4263 27.2563 35.6289 27.054 35.8787 27.054H37.7908C38.5104 27.054 39.0956 26.4686 39.0956 25.7492V19.7743C39.0956 18.8861 38.7273 17.4821 38.2911 16.7082L33.7782 8.69976C33.3809 7.99474 32.3617 7.39911 31.5526 7.39911H28.653C27.9336 7.39911 27.3482 7.98439 27.3482 8.7039V16.2601C27.3482 16.9797 27.9336 17.5649 28.653 17.5649H34.8034C35.0532 17.5649 35.2558 17.7674 35.2558 18.0172C35.2558 18.2673 35.0532 18.4696 34.8034 18.4696H28.653C27.4348 18.4696 26.4434 17.4785 26.4434 16.26V8.70379C26.4434 7.48533 27.4344 6.49414 28.653 6.49414H31.5526C32.6862 6.49414 34.01 7.26778 34.5667 8.25555L39.0796 16.264C39.5958 17.1805 40.0003 18.7225 40.0003 19.7744V25.7493C40.0004 26.9676 39.0091 27.9587 37.7908 27.9587Z" fill="#222222"/>
<path d="M22.0999 5.68284C21.5113 5.68284 21.0143 5.06124 21.0143 4.32558V3.04533C21.0143 1.79788 19.9996 0.783203 18.7521 0.783203H2.26213C1.01478 0.783203 0 1.79788 0 3.04533V25.6967C0 26.9442 1.01478 27.9588 2.26213 27.9588H6.06294C6.28721 29.7914 7.85001 31.2164 9.74245 31.2164C11.7882 31.2164 13.4524 29.5522 13.4524 27.5064C13.4524 25.4607 11.7882 23.7965 9.74245 23.7965C9.05564 23.7965 8.38478 23.9855 7.80261 24.3435C7.58982 24.4743 7.52317 24.7528 7.65399 24.9659C7.78471 25.1788 8.06342 25.2453 8.27642 25.1145C8.71618 24.8443 9.223 24.7016 9.74245 24.7016C11.2892 24.7016 12.5475 25.9599 12.5475 27.5068C12.5475 29.0536 11.2892 30.3117 9.74245 30.3117C8.19569 30.3117 6.93738 29.0535 6.93738 27.5068C6.93738 27.2567 6.73484 27.0544 6.485 27.0544C6.45653 27.0544 2.26223 27.0544 2.26223 27.0544C1.51374 27.0544 0.904975 26.4455 0.904975 25.697V3.04533C0.904975 2.29684 1.51374 1.68807 2.26223 1.68807H18.7521C19.5006 1.68807 20.1093 2.29684 20.1093 3.04533V4.32548C20.1093 5.57292 21.0026 6.5876 22.0999 6.5876C22.6884 6.5876 23.1856 7.20921 23.1856 7.94486V25.6967C23.1856 26.4452 22.5768 27.0541 21.8285 27.0541H15.6755C15.4256 27.0541 15.2231 27.2564 15.2231 27.5064C15.2231 27.7563 15.4257 27.9588 15.6755 27.9588H21.8285C23.0759 27.9588 24.0904 26.944 24.0904 25.6967V7.94496C24.0905 6.69773 23.1974 5.68284 22.0999 5.68284Z" fill="#222222"/>
<path d="M30.5454 23.7964C29.8583 23.7964 29.1876 23.9854 28.6052 24.3434C28.3923 24.4742 28.3257 24.7527 28.4566 24.9658C28.5872 25.1787 28.8659 25.2451 29.079 25.1144C29.5187 24.8442 30.0258 24.7015 30.5454 24.7015C32.0921 24.7015 33.3505 25.9598 33.3505 27.5066C33.3505 29.0535 32.0922 30.3116 30.5454 30.3116C28.9985 30.3116 27.7402 29.0535 27.7402 27.5066C27.7402 27.2566 27.5377 27.0543 27.2878 27.0543H25.2668C25.0168 27.0543 24.8145 27.2566 24.8145 27.5066C24.8145 27.7565 25.0168 27.959 25.2668 27.959H26.8658C27.0901 29.7916 28.6531 31.2166 30.5452 31.2166C32.5909 31.2166 34.2551 29.5524 34.2551 27.5066C34.2552 25.4606 32.5908 23.7964 30.5454 23.7964Z" fill="#222222"/>
</svg>
