<svg width="40" height="40" viewBox="0 0 40 40" fill="none" xmlns="http://www.w3.org/2000/svg">
<path d="M39.618 19.9448L35.6521 15.7987V6.81818C35.6521 6.06513 35.0681 5.45451 34.3477 5.45451H29.1303C28.41 5.45451 27.8259 6.06504 27.8259 6.81818V7.61697L20.9223 0.399335C20.413 -0.133112 19.587 -0.133112 19.0777 0.399335C18.5951 0.903767 1.07666 19.2185 0.381972 19.9448C-0.127324 20.4773 -0.127324 21.3408 0.381972 21.8732C0.891347 22.4057 1.71721 22.4057 2.22658 21.8732L4.34783 19.6557V38.6363C4.34783 39.3894 4.93181 40 5.6522 40C6.32134 40 34.2832 40 34.3478 40C35.0681 40 35.6522 39.3895 35.6522 38.6363V19.6557L37.7734 21.8734C38.2828 22.4059 39.1087 22.4059 39.618 21.8734C40.1273 21.3408 40.1273 20.4774 39.618 19.9448ZM25.2173 37.2727H14.7826V27.2727C14.7826 24.265 17.1231 21.8181 20 21.8181C22.8769 21.8181 25.2174 24.265 25.2174 27.2727L25.2173 37.2727ZM33.0434 37.2727H27.826V27.2727C27.826 22.7612 24.3152 19.0908 19.9999 19.0908C15.6846 19.0908 12.1738 22.7612 12.1738 27.2727V37.2727H6.9565V16.9285L20 3.29206C20.6782 4.00109 32.3709 16.2253 33.0435 16.9285V37.2727H33.0434ZM33.0434 13.0715L30.4348 10.3443V8.18184H33.0434V13.0715Z" fill="#222222"/>
</svg>
