<svg width="40" height="40" viewBox="0 0 40 40" fill="none" xmlns="http://www.w3.org/2000/svg">
<path d="M31.6867 0.242291C31.9667 -0.0629772 32.4354 -0.0826719 32.7382 0.199619C33.0409 0.48191 33.0604 0.954582 32.7805 1.25985L26.6867 7.91009L26.6769 7.92322C25.9314 8.83246 25.4204 9.67277 25.1925 10.4409C24.9907 11.1203 25.02 11.7374 25.3194 12.2758C25.479 12.5646 25.4269 12.9191 25.2153 13.1522L22.3214 16.3099C22.0382 15.998 21.8136 15.7453 21.6638 15.5812C21.5954 15.4893 21.5173 15.4006 21.4359 15.3153L21.4294 15.3219C21.3904 15.2792 21.348 15.2398 21.3057 15.2004L23.7797 12.499C23.49 11.7177 23.4933 10.8873 23.7602 10.0043C24.0466 9.04582 24.6554 8.02498 25.531 6.96147C25.5506 6.93521 25.5668 6.90895 25.5896 6.88597L31.6802 0.235726L31.6867 0.242291ZM18.5974 18.0561C18.3239 17.7476 18.35 17.2716 18.656 16.9959C18.962 16.7202 19.434 16.7464 19.7074 17.055C22.7706 20.5147 32.2401 30.7527 34.8638 34.58C38.3242 39.5201 32.966 41.076 31.1887 39.2772C26.7485 34.9476 17.3213 23.9088 13.1774 19.228C11.6865 19.8648 10.2379 19.9632 8.7828 19.5431C7.21703 19.0934 5.68381 18.0397 4.1278 16.4215L4.10827 16.4018C2.92336 15.1413 1.99562 13.8973 1.32503 12.6664C0.638178 11.3993 0.218251 10.1454 0.0685102 8.90139C-0.0909968 7.56215 0.0327025 6.31482 0.39078 5.20864C0.810706 3.90879 1.55616 2.80917 2.53273 1.99184C3.51582 1.17122 4.72351 0.639467 6.07118 0.475345C7.19099 0.340764 8.4117 0.45565 9.67474 0.872521C11.4228 1.44695 13.4606 2.87482 15.1501 4.70642C16.3968 6.05551 17.4645 7.63437 18.0993 9.25918C18.7601 10.9529 18.962 12.7058 18.4313 14.347C18.1188 15.3186 17.5524 16.2311 16.6735 17.055C16.3708 17.3373 15.902 17.3176 15.6221 17.0156C15.3421 16.7103 15.3617 16.2377 15.6611 15.9554C16.3415 15.3153 16.7777 14.6161 17.0153 13.8776C17.4255 12.6073 17.253 11.1991 16.7126 9.81391C16.1462 8.36307 15.1859 6.94505 14.0596 5.72726C12.5361 4.07947 10.7294 2.8026 9.20598 2.30039C8.16105 1.95901 7.16169 1.86054 6.24697 1.97214C5.18576 2.10344 4.23522 2.51375 3.47675 3.15382C2.71502 3.7939 2.13234 4.65719 1.79705 5.68459C1.50733 6.5807 1.40642 7.61139 1.53988 8.72414C1.66684 9.77452 2.02817 10.8479 2.62062 11.9442C3.24237 13.0701 4.09525 14.2091 5.19227 15.3744L5.19878 15.3842C6.57249 16.8121 7.89086 17.7312 9.19622 18.1054C10.43 18.4599 11.6865 18.322 12.9983 17.6623C13.2978 17.4883 13.6852 17.5474 13.9228 17.8165C17.9659 22.3824 27.7999 33.8743 32.1555 38.1316C34.0468 38.9095 35.0949 37.9511 34.19 36.2606C32.7805 33.6215 20.671 20.4064 18.5974 18.0561ZM14.6715 24.6572L5.17925 35.0133C5.15971 35.033 5.14344 35.0527 5.12065 35.0724C3.73392 36.5823 6.18837 38.7815 7.71183 37.311L16.9307 27.2503L17.9203 28.3827L8.77304 38.3647C8.75351 38.3876 8.73397 38.4073 8.70793 38.4303C8.16105 38.8931 7.61091 39.1951 7.05427 39.3199C6.48134 39.4512 5.91819 39.3921 5.37782 39.136C5.28667 39.0999 5.20203 39.054 5.12716 38.985L3.8153 37.7607C3.79577 37.741 3.77623 37.7246 3.7567 37.7016C3.24888 37.1108 3.008 36.4805 3.0731 35.8142C3.13495 35.184 3.46699 34.5701 4.09525 33.9793L13.6787 23.5214L14.6715 24.6572ZM24.6196 18.8603L25.1827 18.2465C25.4627 17.9413 25.9347 17.9216 26.2342 18.2039C26.5337 18.4861 26.5564 18.9588 26.2765 19.2641L25.6254 19.9731L24.6196 18.8603ZM34.0012 2.43825C34.2811 2.13298 34.7499 2.11329 35.0526 2.39558C35.3554 2.67787 35.3749 3.15054 35.0949 3.45581L29.7531 9.28872C29.4731 9.59399 29.0044 9.61368 28.7016 9.33139C28.3989 9.0491 28.3794 8.57643 28.6593 8.27116L34.0012 2.43825ZM36.3124 4.59482C36.5924 4.28955 37.0611 4.26986 37.3639 4.55215C37.6666 4.83444 37.6861 5.30711 37.4062 5.61238L32.0676 11.442C31.7876 11.7473 31.3189 11.767 31.0161 11.4847C30.7134 11.2024 30.6939 10.7297 30.9738 10.4244L36.3124 4.59482ZM38.7083 6.83673C38.9882 6.53146 39.457 6.51177 39.7597 6.79406C40.0625 7.07635 40.082 7.55231 39.802 7.85429L33.7082 14.5078C33.6854 14.5308 33.6626 14.5505 33.6399 14.5735C32.2531 15.9193 30.9282 16.6972 29.6619 16.9171C28.2882 17.1568 27.0285 16.7629 25.8728 15.7453C25.5636 15.4729 25.5343 14.9969 25.8012 14.6884C26.0714 14.3765 26.5434 14.347 26.8494 14.6161C27.6469 15.3186 28.4998 15.5943 29.4015 15.4335C30.3716 15.2661 31.4393 14.6194 32.6047 13.487L32.6112 13.4804L38.7018 6.83345L38.7083 6.83673Z" fill="#222222"/>
</svg>
