<svg width="14" height="19" viewBox="0 0 14 19" fill="none" xmlns="http://www.w3.org/2000/svg">
<path d="M6.99689 0C3.13947 0 1.65411e-06 3.1269 0 6.96734C-2.41754e-06 13.7249 6.603 18.8621 6.603 18.8621C6.83496 19.046 7.16379 19.046 7.39576 18.8621C7.39576 18.8621 14 13.7249 14 6.96734C14 3.1269 10.8543 0 6.99689 0ZM6.99689 3.80161C8.74616 3.80161 10.1816 5.22578 10.1816 6.96734C10.1816 8.70893 8.74617 10.1368 6.99689 10.1368C5.24762 10.1368 3.81715 8.70893 3.81716 6.96734C3.81717 5.22578 5.24763 3.80161 6.99689 3.80161Z" fill="#222222"/>
</svg>
