<svg width="20" height="20" viewBox="0 0 20 20" fill="none" xmlns="http://www.w3.org/2000/svg">
<path fill-rule="evenodd" clip-rule="evenodd" d="M19.6406 17.3277C19.0232 19.2036 16.6045 20.1392 14.8765 19.9832C12.5165 19.7699 9.94848 18.5182 7.99913 17.1396C5.13377 15.1129 2.44975 11.9781 0.885734 8.6515C-0.219608 6.30089 -0.467607 3.41084 1.17641 1.26823C1.78441 0.476253 2.44175 0.053275 3.42976 0.003943C4.80043 -0.0627219 4.99244 0.721393 5.46311 1.94269C5.81378 2.856 6.28178 3.78764 6.54311 4.73428C7.03245 6.5009 5.32177 6.57474 5.10577 8.0187C4.9711 8.92934 6.07511 10.1506 6.57378 10.7999C7.55112 12.0718 8.7258 13.1689 10.0511 14.0036C10.8098 14.4822 12.0352 15.3448 12.9045 14.8688C14.2432 14.1355 14.1165 11.8783 15.9885 12.6423C16.9579 13.0369 17.8965 13.6065 18.8219 14.1051C20.2526 14.8744 20.1859 15.6717 19.6406 17.3277C20.0486 16.0904 19.2325 18.565 19.6406 17.3277Z" fill="#222222"/>
</svg>
