<svg width="35" height="34" viewBox="0 0 35 34" fill="none" xmlns="http://www.w3.org/2000/svg">
<path d="M17.5 0C7.87499 0 0 7.66365 0 17.1024C0 25.6366 6.40499 32.7199 14.77 34V22.0522H10.325V17.1024H14.77V13.3303C14.77 9.04618 17.3775 6.69076 21.385 6.69076C23.2925 6.69076 25.2875 7.01505 25.2875 7.01505V11.2309H23.0825C20.9125 11.2309 20.23 12.5452 20.23 13.8936V17.1024H25.095L24.3075 22.0522H20.23V34C24.3537 33.3647 28.1088 31.3126 30.8173 28.2139C33.5258 25.1153 35.0094 21.1742 35 17.1024C35 7.66365 27.125 0 17.5 0Z" fill="#0A7AFE"/>
</svg>
