<svg width="35" height="36" viewBox="0 0 35 36" fill="none" xmlns="http://www.w3.org/2000/svg">
<path d="M17.5 0C7.83398 0 0 8.05781 0 18C0 27.9422 7.83398 36 17.5 36C27.166 36 35 27.9422 35 18C35 8.05781 27.166 0 17.5 0ZM12.6055 25.5305H9.19434V14.3016H12.6055V25.5305ZM10.8076 12.8953H10.7803C9.54297 12.8953 8.74316 12.0375 8.74316 10.9477C8.74316 9.83672 9.57031 9 10.8281 9C12.0859 9 12.8584 9.83672 12.8857 10.9477C12.8926 12.0305 12.0928 12.8953 10.8076 12.8953ZM26.25 25.5305H22.3809V19.7227C22.3809 18.2039 21.7793 17.1633 20.4463 17.1633C19.4277 17.1633 18.8604 17.8664 18.6006 18.5414C18.5049 18.7805 18.5186 19.118 18.5186 19.4625V25.5305H14.6836C14.6836 25.5305 14.7314 15.2367 14.6836 14.3016H18.5186V16.0664C18.7441 15.293 19.9678 14.1961 21.9229 14.1961C24.3496 14.1961 26.25 15.8133 26.25 19.2867V25.5305Z" fill="#0882BC"/>
</svg>
