<svg width="35" height="36" viewBox="0 0 35 36" fill="none" xmlns="http://www.w3.org/2000/svg">
<path d="M17.5 0C7.83398 0 0 8.05781 0 18C0 27.9422 7.83398 36 17.5 36C27.166 36 35 27.9422 35 18C35 8.05781 27.166 0 17.5 0ZM24.4863 15.2016C24.4932 15.3563 24.4932 15.518 24.4932 15.6797C24.4932 20.5664 20.877 26.2055 14.2598 26.2055C12.2295 26.2055 10.3359 25.5938 8.75 24.5461C9.03027 24.5813 9.31738 24.5953 9.61133 24.5953C11.293 24.5953 12.8447 24.0047 14.0752 23.0133C12.5029 22.9852 11.1699 21.9164 10.7188 20.4469C10.9375 20.4891 11.1631 20.5102 11.3955 20.5102C11.7236 20.5102 12.0449 20.468 12.3457 20.3766C10.6982 20.0391 9.46094 18.5414 9.46094 16.7484V16.7063C9.94629 16.9805 10.5 17.1492 11.0879 17.1703C10.124 16.5094 9.48828 15.3703 9.48828 14.0906C9.48828 13.4156 9.66602 12.7758 9.97363 12.2273C11.751 14.4703 14.3965 15.9398 17.3838 16.0945C17.3223 15.8273 17.2881 15.5461 17.2881 15.2508C17.2881 13.2117 18.9014 11.5523 20.8838 11.5523C21.916 11.5523 22.8525 12.0023 23.5088 12.7195C24.3291 12.5508 25.0947 12.2484 25.792 11.8195C25.5254 12.6844 24.9512 13.4086 24.2129 13.8656C24.9375 13.7742 25.6348 13.5773 26.2773 13.282C25.7988 14.0273 25.1904 14.6742 24.4863 15.2016Z" fill="#1E88C0"/>
</svg>
