<svg width="60" height="60" viewBox="0 0 60 60" fill="none" xmlns="http://www.w3.org/2000/svg">
<path d="M30.1973 5.625C18.2135 5.625 8.36195 14.7825 7.40138 26.4582H5.00005C4.24035 26.4582 3.55573 26.9167 3.26638 27.6192C2.97703 28.3218 3.14015 29.1292 3.67945 29.6642L7.87898 33.831C8.61 34.5562 9.78918 34.5562 10.5202 33.831L14.7197 29.6642C15.259 29.1292 15.4222 28.3218 15.1328 27.6192C14.8435 26.9167 14.1588 26.4582 13.3991 26.4582H11.167C12.1163 16.8792 20.262 9.375 30.1973 9.375C37.121 9.375 43.1818 13.0211 46.539 18.482C47.0813 19.3641 48.236 19.6396 49.1183 19.0973C50.0005 18.555 50.276 17.4002 49.7335 16.518C45.7178 9.98568 38.4683 5.625 30.1973 5.625Z" fill="#FF5B46"/>
<path d="M52.103 26.1665C51.3728 25.4445 50.1973 25.4445 49.467 26.1665L45.2513 30.3332C44.7105 30.8677 44.5463 31.6757 44.835 32.3792C45.124 33.0825 45.809 33.5417 46.5695 33.5417H48.8173C47.864 43.1155 39.69 50.625 29.707 50.625C22.7509 50.625 16.6649 46.9757 13.2951 41.5152C12.7513 40.634 11.596 40.3605 10.7148 40.9045C9.83355 41.4482 9.56003 42.6035 10.1039 43.4847C14.1354 50.0175 21.4104 54.375 29.707 54.375C41.7268 54.375 51.619 45.223 52.583 33.5417H55.0005C55.761 33.5417 56.446 33.0825 56.735 32.3792C57.024 31.6757 56.8595 30.8677 56.3188 30.3332L52.103 26.1665Z" fill="#222222"/>
</svg>
