<svg width="60" height="60" viewBox="0 0 60 60" fill="none" xmlns="http://www.w3.org/2000/svg">
<path d="M30 55C43.8071 55 55 43.8071 55 30C55 16.1929 43.8071 5 30 5C16.1929 5 5 16.1929 5 30C5 43.8071 16.1929 55 30 55Z" stroke="#222222" stroke-width="3.75"/>
<path d="M30 15V45" stroke="#FF5B46" stroke-width="3.75" stroke-linecap="round"/>
<path d="M37.5 23.75C37.5 20.2982 34.1423 17.5 30 17.5C25.8577 17.5 22.5 20.2982 22.5 23.75C22.5 27.2017 25.8577 30 30 30C34.1423 30 37.5 32.7983 37.5 36.25C37.5 39.7017 34.1423 42.5 30 42.5C25.8577 42.5 22.5 39.7017 22.5 36.25" stroke="#FF5B46" stroke-width="3.75" stroke-linecap="round"/>
</svg>
