<svg width="60" height="60" viewBox="0 0 60 60" fill="none" xmlns="http://www.w3.org/2000/svg">
<g clip-path="url(#clip0_59_452)">
<path d="M30 10.4399C24.03 10.4399 19.17 15.2999 19.17 21.2699C19.17 27.2399 24.03 32.0999 30 32.0999C35.97 32.0999 40.83 27.2399 40.83 21.2699C40.83 15.2999 35.97 10.4399 30 10.4399ZM30 28.3499C26.1 28.3499 22.92 25.1699 22.92 21.2699C22.92 17.3699 26.1 14.1899 30 14.1899C33.9 14.1899 37.08 17.3699 37.08 21.2699C37.08 25.1699 33.9 28.3499 30 28.3499Z" fill="#FF5B46"/>
<path d="M39.93 35.7002L37.47 37.1102C38.34 36.7202 39.15 36.2402 39.93 35.7002ZM22.53 37.1402L20.07 35.7302C20.85 36.2402 21.66 36.7202 22.53 37.1402ZM41.97 38.8802L39.18 40.5002C40.14 40.0202 41.07 39.4802 41.97 38.8802ZM37.47 37.1402C35.19 38.2202 32.67 38.8202 30 38.8202C27.33 38.8202 24.78 38.2202 22.53 37.1402L27.96 40.2902L26.88 42.3602C27.9 42.5102 28.95 42.6002 30 42.6002C31.05 42.6002 32.1 42.5102 33.12 42.3602L32.04 40.2902L37.47 37.1402Z" fill="#222222"/>
<path d="M41.97 38.8802C43.77 37.6502 45.36 36.1502 46.71 34.4702L45.66 32.4302L39.96 35.7302C39.18 36.2702 38.37 36.7502 37.5 37.1402L32.07 40.2902L33.15 42.3602C35.28 42.0302 37.32 41.4002 39.21 40.5002L41.97 38.8802Z" fill="#222222"/>
<path d="M46.68 34.4702C45.33 36.1802 43.74 37.6502 41.94 38.8802L44.1 37.6502L49.02 47.1002L43.68 46.4702L41.79 50.9402L36.99 41.7602L39.15 40.5002C37.26 41.4002 35.22 42.0302 33.09 42.3602L42.15 59.7302L46.05 50.5202L55.62 51.6302L46.68 34.4702ZM22.53 37.1402C21.66 36.7202 20.85 36.2702 20.07 35.7302L14.37 32.4302L13.32 34.4702C14.67 36.1802 16.26 37.6502 18.06 38.8802L20.82 40.4702C22.71 41.3702 24.75 42.0302 26.91 42.3302L27.99 40.2602L22.53 37.1402ZM18.03 38.8802C18.9 39.4802 19.83 40.0202 20.79 40.4702L18.03 38.8802Z" fill="#222222"/>
<path d="M22.98 41.73L18.18 50.91L16.29 46.44L10.95 47.07L15.87 37.62L18.03 38.88C16.23 37.65 14.64 36.15 13.29 34.47L4.34998 51.6L13.92 50.49L17.82 59.7L26.88 42.33C24.72 42 22.68 41.37 20.79 40.47L22.98 41.73ZM20.07 35.73C15.48 32.55 12.48 27.27 12.48 21.3C12.48 11.64 20.34 3.78 30 3.78C39.66 3.78 47.52 11.64 47.52 21.3C47.52 27.27 44.52 32.55 39.93 35.73L45.63 32.43L46.68 34.47C49.56 30.84 51.27 26.28 51.27 21.3C51.27 9.54 41.73 0 30 0C18.27 0 8.72998 9.54 8.72998 21.27C8.72998 26.25 10.44 30.81 13.32 34.44L14.37 32.4L20.07 35.73Z" fill="#222222"/>
</g>
<defs>
<clipPath id="clip0_59_452">
<rect width="60" height="60" fill="white"/>
</clipPath>
</defs>
</svg>
