<svg width="60" height="60" viewBox="0 0 60 60" fill="none" xmlns="http://www.w3.org/2000/svg">
<path fill-rule="evenodd" clip-rule="evenodd" d="M20.1145 27.1795C21.3179 26.5025 21.7447 24.9782 21.0678 23.7748C20.3909 22.5714 18.8666 22.1446 17.6632 22.8215L8.77435 27.8215C7.96812 28.275 7.4782 29.1365 7.50075 30.0612C7.52327 30.986 8.0546 31.8227 8.88197 32.2365L14.0814 34.8362L8.77435 37.8215C7.96812 38.275 7.4782 39.1365 7.50075 40.0612C7.52327 40.986 8.0546 41.8227 8.88197 42.2365L28.882 52.2365C29.5857 52.5885 30.4142 52.5885 31.118 52.2365L51.118 42.2365C51.9455 41.8227 52.4767 40.986 52.4992 40.0612C52.5217 39.1365 52.032 38.275 51.2257 37.8215L45.9185 34.8362L51.118 32.2365C51.9455 31.8227 52.4767 30.986 52.4992 30.0612C52.5217 29.1365 52.032 28.275 51.2257 27.8215L42.3367 22.8215C41.1332 22.1446 39.609 22.5714 38.9322 23.7748C38.2552 24.9782 38.682 26.5025 39.8855 27.1795L44.6698 29.8705L30 37.2052L15.3303 29.8705L20.1145 27.1795ZM40.5192 37.536L31.118 42.2365C30.4142 42.5885 29.5857 42.5885 28.882 42.2365L19.4807 37.536L15.3303 39.8705L30 47.2052L44.6698 39.8705L40.5192 37.536Z" fill="#222222"/>
<path fill-rule="evenodd" clip-rule="evenodd" d="M28.882 7.76393C29.5858 7.41202 30.4142 7.41202 31.118 7.76393L51.118 17.7639C51.965 18.1874 52.5 19.0531 52.5 20C52.5 20.9469 51.965 21.8126 51.118 22.2361L31.118 32.236C30.4142 32.588 29.5858 32.588 28.882 32.236L8.88197 22.2361C8.035 21.8126 7.5 20.9469 7.5 20C7.5 19.0531 8.035 18.1874 8.88197 17.7639L28.882 7.76393ZM15.5902 20L30 27.205L44.4098 20L30 12.7951L15.5902 20Z" fill="#FF5B46"/>
</svg>
